<svg width="20" height="21" viewBox="0 0 20 21" fill="none" xmlns="http://www.w3.org/2000/svg">
<path fill-rule="evenodd" clip-rule="evenodd" d="M5 0.5C2.23858 0.5 0 2.73858 0 5.5V15.5C0 18.2614 2.23858 20.5 5 20.5H10C15.5228 20.5 20 16.0228 20 10.5C20 4.97715 15.5228 0.5 10 0.5H5ZM8.28215 6.63362C8.55932 6.23326 8.45946 5.68401 8.0591 5.40684C7.65874 5.12967 7.10949 5.22953 6.83232 5.62989L6.1077 6.67656L5.22021 5.57776C4.91425 5.19895 4.35912 5.13989 3.98031 5.44586C3.6015 5.75182 3.54245 6.30694 3.84841 6.68575L5.52898 8.76646C5.87238 9.19162 6.528 9.1674 6.83909 8.71805L8.28215 6.63362ZM10.4997 15.8665C10.4997 16.4653 10.9888 16.9603 11.5795 16.8616C14.6587 16.3473 17.0056 13.6701 17.0056 10.4449C17.0056 7.21962 14.6587 4.54251 11.5795 4.02816C10.9888 3.92949 10.4997 4.42443 10.4997 5.02328C10.4997 5.62214 10.9927 6.09369 11.5731 6.24144C13.4493 6.71909 14.837 8.41993 14.837 10.4449C14.837 12.4698 13.4493 14.1707 11.5731 14.6483C10.9927 14.7961 10.4997 15.2676 10.4997 15.8665ZM6.01334 15.7767C6.98722 15.7767 7.77671 14.9872 7.77671 14.0133C7.77671 13.0394 6.98722 12.2499 6.01334 12.2499C5.03945 12.2499 4.24996 13.0394 4.24996 14.0133C4.24996 14.9872 5.03945 15.7767 6.01334 15.7767Z" fill="#FF8577"/>
</svg>
