<svg width="240" height="49" viewBox="0 0 240 49" fill="none" xmlns="http://www.w3.org/2000/svg">
<path d="M130.076 39.084C130.076 17.4985 147.575 0 169.16 0C174.557 0 178.931 4.37462 178.931 9.77099V36.6412C178.931 43.3867 173.463 48.855 166.718 48.855H139.847C134.451 48.855 130.076 44.4803 130.076 39.084Z" fill="#10A9FF"/>
<path d="M0 12.2137C0 5.46828 5.46828 0 12.2137 0V0C18.9592 0 24.4275 5.46828 24.4275 12.2137V36.6412C24.4275 43.3867 18.9592 48.855 12.2137 48.855V48.855C5.46828 48.855 0 43.3867 0 36.6412V12.2137Z" fill="#10A9FF"/>
<path d="M93.4351 12.2137C93.4351 5.46828 98.9033 0 105.649 0V0C112.394 0 117.863 5.46828 117.863 12.2137V36.6412C117.863 43.3867 112.394 48.855 105.649 48.855V48.855C98.9033 48.855 93.4351 43.3867 93.4351 36.6412V12.2137Z" fill="#344859"/>
<path fill-rule="evenodd" clip-rule="evenodd" d="M203.359 0C196.613 0 191.145 5.46828 191.145 12.2137V36.6412C191.145 43.3867 196.613 48.8549 203.359 48.8549H215.572C229.063 48.8549 240 37.9184 240 24.4275C240 10.9366 229.063 0 215.572 0H203.359ZM211.376 14.9829C212.053 14.0049 211.809 12.6632 210.831 11.9862C209.853 11.3091 208.512 11.5531 207.835 12.531L206.065 15.0878L203.897 12.4037C203.149 11.4783 201.793 11.3341 200.868 12.0815C199.943 12.8289 199.798 14.1849 200.546 15.1102L204.651 20.1929C205.49 21.2314 207.091 21.1723 207.851 20.0746L211.376 14.9829ZM216.793 37.5364C216.793 38.9993 217.988 40.2083 219.431 39.9673C226.953 38.7108 232.686 32.1713 232.686 24.2928C232.686 16.4143 226.953 9.87482 219.431 8.61839C217.988 8.37738 216.793 9.58639 216.793 11.0492C216.793 12.5121 217.998 13.664 219.415 14.0249C223.998 15.1917 227.388 19.3464 227.388 24.2928C227.388 29.2393 223.998 33.394 219.415 34.5608C217.998 34.9217 216.793 36.0736 216.793 37.5364ZM205.834 37.3171C208.213 37.3171 210.142 35.3886 210.142 33.0096C210.142 30.6307 208.213 28.7021 205.834 28.7021C203.455 28.7021 201.527 30.6307 201.527 33.0096C201.527 35.3886 203.455 37.3171 205.834 37.3171Z" fill="#FF8577"/>
<path d="M81.4615 39.1607C81.4864 46.6159 73.4065 51.2808 66.9625 47.5317L41.4371 32.681C35.0301 28.9534 35.0456 19.6933 41.4649 15.9871L66.8919 1.30676C73.3112 -2.39943 81.3384 2.21729 81.3631 9.62963L81.4615 39.1607Z" fill="#22F5CB"/>
</svg>
