<svg width="200" height="135" viewBox="0 0 200 135" fill="none" xmlns="http://www.w3.org/2000/svg">
<path fill-rule="evenodd" clip-rule="evenodd" d="M0 0H18.2999C23.3891 0 27.5147 4.12562 27.5147 9.21483C27.5147 12.381 25.9178 15.1743 23.4855 16.8331C26.5233 18.6762 28.553 22.0148 28.553 25.8275C28.553 31.6335 23.8463 36.3402 18.0403 36.3402H0V0ZM3.11487 15.3148H18.2999C21.6688 15.3148 24.3998 12.5837 24.3998 9.21483C24.3998 5.84591 21.6688 3.11487 18.2999 3.11487H3.11487V15.3148ZM3.11487 18.4297V33.2253H18.0403C22.126 33.2253 25.4381 29.9132 25.4381 25.8275C25.4381 21.7418 22.126 18.4297 18.0403 18.4297H3.11487Z" fill="#1C1C1C"/>
<path d="M74.2377 0H46.723V36.3402H75.276V33.2253H49.8379V18.4297H74.2377V15.3148H49.8379V3.11487H74.2377V0Z" fill="#1C1C1C"/>
<path d="M3.10132 63.5845L21.8576 49.3188H26.9947L5.07546 65.9902L28.553 85.659H23.7113L3.10132 68.3926V85.6591H0V49.3189H3.10132V63.5845Z" fill="#1C1C1C"/>
<path d="M59.442 49.3188H62.5569V85.659H59.442V49.3188Z" fill="#1C1C1C"/>
<path d="M96.5609 56.8465V85.659H93.446V49.3188H93.9652L118.884 77.8718V49.3188H121.999V85.659H121.48L96.5609 56.8465Z" fill="#1C1C1C"/>
<path fill-rule="evenodd" clip-rule="evenodd" d="M154.446 49.3188C162.33 49.3188 168.722 57.4539 168.722 67.4889C168.722 77.524 162.33 85.659 154.446 85.659H140.169V49.3188H154.446ZM165.607 67.4889C165.607 76.5453 159.952 82.5441 154.446 82.5441H143.284V52.4337H154.446C159.952 52.4337 165.607 58.4325 165.607 67.4889Z" fill="#1C1C1C"/>
<path d="M3.11487 98.6377H0V134.978H28.553V131.863H3.11487V98.6377Z" fill="#1C1C1C"/>
<path fill-rule="evenodd" clip-rule="evenodd" d="M61.2592 98.6377H60.74L43.8678 134.978H47.2422L52.4314 123.816H69.5678L74.7569 134.978H78.1314L61.2592 98.6377ZM68.1196 120.701L60.9996 105.387L53.8796 120.701H68.1196Z" fill="#1C1C1C"/>
<path fill-rule="evenodd" clip-rule="evenodd" d="M93.446 98.6377H111.746C116.835 98.6377 120.961 102.763 120.961 107.853C120.961 111.019 119.364 113.812 116.932 115.471C119.969 117.314 121.999 120.652 121.999 124.465C121.999 130.271 117.292 134.978 111.486 134.978H93.446V98.6377ZM96.5609 113.952H111.746C115.115 113.952 117.846 111.221 117.846 107.853C117.846 104.484 115.115 101.753 111.746 101.753H96.5609V113.952ZM96.5609 117.067V131.863H111.486C115.572 131.863 118.884 128.551 118.884 124.465C118.884 120.379 115.572 117.067 111.486 117.067H96.5609Z" fill="#1C1C1C"/>
<path d="M166.126 101.753H150.293C146.995 101.753 144.322 104.426 144.322 107.723C144.322 111.02 146.995 113.693 150.293 113.693H158.08C163.957 113.693 168.722 118.458 168.722 124.335C168.722 130.213 163.957 134.978 158.08 134.978H140.169V131.863H158.08C162.237 131.863 165.607 128.493 165.607 124.335C165.607 120.178 162.237 116.808 158.08 116.808H150.293C145.275 116.808 141.207 112.74 141.207 107.723C141.207 102.705 145.275 98.6377 150.293 98.6377H166.126V101.753Z" fill="#1C1C1C"/>
<path fill-rule="evenodd" clip-rule="evenodd" d="M44.3239 53.4089C44.9321 52.8007 45.9182 52.8007 46.5264 53.4089L53.8683 60.7507C54.4765 61.3589 54.4765 62.345 53.8683 62.9533C53.26 63.5615 52.2739 63.5615 51.6657 62.9533L44.3239 55.6114C43.7157 55.0032 43.7157 54.0171 44.3239 53.4089Z" fill="#05E0E9"/>
<path fill-rule="evenodd" clip-rule="evenodd" d="M77.7496 53.4089C77.1414 52.8007 76.1553 52.8007 75.547 53.4089L68.2052 60.7507C67.597 61.3589 67.597 62.345 68.2052 62.9533C68.8134 63.5615 69.7996 63.5615 70.4078 62.9533L77.7496 55.6114C78.3578 55.0032 78.3578 54.0171 77.7496 53.4089Z" fill="#FF2768"/>
<path fill-rule="evenodd" clip-rule="evenodd" d="M186.695 53.4088C186.087 52.8006 185.101 52.8006 184.492 53.4088C183.884 54.017 183.884 55.0031 184.492 55.6113L196.305 67.424L184.493 79.2359C183.885 79.8441 183.885 80.8302 184.493 81.4384C185.101 82.0467 186.087 82.0467 186.696 81.4384L199.544 68.5903C199.866 68.2675 200.018 67.8383 199.998 67.4156C200.013 66.9981 199.862 66.5757 199.543 66.257L186.695 53.4088Z" fill="#FF2768"/>
<path fill-rule="evenodd" clip-rule="evenodd" d="M44.3245 81.4388C44.9327 82.047 45.9188 82.047 46.5271 81.4388L53.8689 74.0969C54.4771 73.4887 54.4771 72.5026 53.8689 71.8944C53.2607 71.2862 52.2745 71.2862 51.6663 71.8944L44.3245 79.2362C43.7163 79.8444 43.7163 80.8305 44.3245 81.4388Z" fill="#05E0E9"/>
<path fill-rule="evenodd" clip-rule="evenodd" d="M77.749 81.4388C77.1408 82.047 76.1546 82.047 75.5464 81.4388L68.2046 74.0969C67.5964 73.4887 67.5964 72.5026 68.2046 71.8944C68.8128 71.2862 69.7989 71.2862 70.4072 71.8944L77.749 79.2362C78.3572 79.8444 78.3572 80.8305 77.749 81.4388Z" fill="#FF2768"/>
</svg>
