<svg width="286" height="24" viewBox="0 0 286 24" fill="none" xmlns="http://www.w3.org/2000/svg">
<path fill-rule="evenodd" clip-rule="evenodd" d="M0 0H12.75C16.2018 0 19 2.79822 19 6.25C19 8.0733 18.2192 9.71426 16.9738 10.8568C18.8063 12.1725 20 14.3219 20 16.75C20 20.7541 16.7541 24 12.75 24H0V0ZM12.75 3H3V9.5H12.75C14.5449 9.5 16 8.04492 16 6.25C16 4.45508 14.5449 3 12.75 3ZM3 21V12.5H12.75C15.0972 12.5 17 14.4028 17 16.75C17 19.0972 15.0972 21 12.75 21H3Z" fill="white"/>
<path d="M47 0H28V24H48V21H31V12.5H47V9.5H31V3H47V0Z" fill="white"/>
<path d="M59 0H56V24H59V13.5L71 24H76L61 11L75 0H70L59 8.5V0Z" fill="#05E0E9"/>
<path d="M84 0H87V24H84V0Z" fill="#05E0E9"/>
<path d="M98 24H95V0H96L112 17.25V0H115V24H114L98 6.75V24Z" fill="#05E0E9"/>
<path fill-rule="evenodd" clip-rule="evenodd" d="M131 3H126V21H131C135.971 21 140 16.9706 140 12C140 7.02944 135.971 3 131 3ZM123 0V24H131C137.627 24 143 18.6274 143 12C143 5.37258 137.627 0 131 0H123Z" fill="#05E0E9"/>
<path d="M164 0H161V24H181V21H164V0Z" fill="white"/>
<path fill-rule="evenodd" clip-rule="evenodd" d="M186.5 24L197.5 0H198.5L209.5 24H206L203.521 18.5H192.479L190 24H186.5ZM193.831 15.5H202.169L198 6.25L193.831 15.5Z" fill="white"/>
<path fill-rule="evenodd" clip-rule="evenodd" d="M215.5 0H228.25C231.702 0 234.5 2.79822 234.5 6.25C234.5 8.07332 233.719 9.71428 232.474 10.8568C234.306 12.1725 235.5 14.3219 235.5 16.75C235.5 20.7541 232.254 24 228.25 24H215.5V0ZM228.25 3H218.5V9.5H228.25C230.045 9.5 231.5 8.04493 231.5 6.25C231.5 4.45507 230.045 3 228.25 3ZM218.5 21V12.5H228.25C230.597 12.5 232.5 14.4028 232.5 16.75C232.5 19.0972 230.597 21 228.25 21H218.5Z" fill="white"/>
<path d="M260 3H249.25C247.455 3 246 4.45508 246 6.25C246 8.04492 247.455 9.5 249.25 9.5H254.75C258.754 9.5 262 12.7459 262 16.75C262 20.7541 258.754 24 254.75 24H242V21H254.75C257.097 21 259 19.0972 259 16.75C259 14.4028 257.097 12.5 254.75 12.5H249.25C245.798 12.5 243 9.70178 243 6.25C243 2.79822 245.798 0 249.25 0H260V3Z" fill="white"/>
<path d="M276.564 2.43966C275.977 1.85345 275.026 1.85345 274.44 2.43966C273.853 3.02588 273.853 3.97632 274.44 4.56254L281.881 12L274.44 19.4375C273.853 20.0237 273.853 20.9741 274.44 21.5603C275.026 22.1466 275.977 22.1466 276.564 21.5603L285.06 13.0688C285.355 12.7738 285.502 12.3866 285.5 12C285.502 11.6134 285.355 11.2262 285.06 10.9312L276.564 2.43966Z" fill="#FF2768"/>
</svg>
