<svg width="257" height="70" viewBox="0 0 257 70" fill="none" xmlns="http://www.w3.org/2000/svg">
<rect width="20" height="70" rx="10" fill="#1E1E1E"/>
<rect x="87" width="20" height="70" rx="10" fill="#1E1E1E"/>
<path d="M197 10C197 4.47715 201.477 0 207 0H222C241.33 0 257 15.67 257 35V35C257 54.33 241.33 70 222 70H207C201.477 70 197 65.5228 197 60V10Z" fill="#1E1E1E"/>
<path d="M77 62.1332C77 68.8406 69.1195 72.4597 64.0173 68.0956L32.7477 41.35C29.1181 38.2455 29.0785 32.6536 32.6638 29.4982L63.9333 1.97744C69.0125 -2.49289 77 1.10723 77 7.8669L77 62.1332Z" fill="#1E1E1E"/>
<path d="M134.071 24.1421C127.771 17.8425 117 22.3042 117 31.2132V60C117 65.5229 121.477 70 127 70L155.787 70C164.696 70 169.158 59.2286 162.858 52.9289L134.071 24.1421Z" fill="#1E1E1E"/>
<path d="M169.929 45.8578C176.229 52.1575 187 47.6958 187 38.7868V10C187 4.47719 182.523 4.00878e-05 177 3.63001e-05L148.213 1.65574e-05C139.304 1.04473e-05 134.842 10.7714 141.142 17.0711L169.929 45.8578Z" fill="#1E1E1E"/>
</svg>
