<svg width="771" height="520" viewBox="0 0 771 520" fill="none" xmlns="http://www.w3.org/2000/svg">
<path fill-rule="evenodd" clip-rule="evenodd" d="M0 0H70.5C90.1061 0 106 15.8939 106 35.5C106 47.6978 99.8481 58.4587 90.4777 64.8494C102.181 71.9497 110 84.8117 110 99.5C110 121.868 91.8675 140 69.5 140H0V0ZM12 59H70.5C83.4787 59 94 48.4787 94 35.5C94 22.5213 83.4787 12 70.5 12H12V59ZM12 71V128H69.5C85.2401 128 98 115.24 98 99.5C98 83.7599 85.2401 71 69.5 71H12Z" fill="white"/>
<path d="M286 0H180V140H290V128H192V71H286V59H192V12H286V0Z" fill="white"/>
<path d="M11.9478 244.958L84.2061 190H103.997L19.5531 254.226L110 330H91.3474L11.9478 263.481V330H0V190H11.9478V244.958Z" fill="white"/>
<path d="M229 190H241V330H229V190Z" fill="white"/>
<path d="M372 219V330H360V190H362L458 300V190H470V330H468L372 219Z" fill="white"/>
<path fill-rule="evenodd" clip-rule="evenodd" d="M595 190C625.376 190 650 221.34 650 260C650 298.66 625.376 330 595 330H540V190H595ZM638 260C638 294.89 616.214 318 595 318H552V202H595C616.214 202 638 225.11 638 260Z" fill="white"/>
<path d="M12 380H0V520H110V508H12V380Z" fill="white"/>
<path fill-rule="evenodd" clip-rule="evenodd" d="M236 380H234L169 520H182L201.991 477H268.009L288 520H301L236 380ZM262.43 465L235 406L207.57 465H262.43Z" fill="white"/>
<path fill-rule="evenodd" clip-rule="evenodd" d="M360 380H430.5C450.106 380 466 395.894 466 415.5C466 427.698 459.848 438.459 450.478 444.849C462.181 451.95 470 464.812 470 479.5C470 501.868 451.868 520 429.5 520H360V380ZM372 439H430.5C443.479 439 454 428.479 454 415.5C454 402.521 443.479 392 430.5 392H372V439ZM372 451V508H429.5C445.24 508 458 495.24 458 479.5C458 463.76 445.24 451 429.5 451H372Z" fill="white"/>
<path d="M640 392H579C566.297 392 556 402.297 556 415C556 427.703 566.297 438 579 438H609C631.644 438 650 456.356 650 479C650 501.644 631.644 520 609 520H540V508H609C625.016 508 638 495.016 638 479C638 462.984 625.016 450 609 450H579C559.67 450 544 434.33 544 415C544 395.67 559.67 380 579 380H640V392Z" fill="white"/>
<path d="M714.998 210L764.495 259.497" stroke="#FF2768" stroke-width="12" stroke-linecap="round"/>
<path d="M175 210L203.284 238.284" stroke="#05E0E9" stroke-width="12" stroke-linecap="round"/>
<path d="M295.287 210L267.002 238.284" stroke="#FF2768" stroke-width="12" stroke-linecap="round"/>
<path d="M715 309.498L764.497 260" stroke="#FF2768" stroke-width="12" stroke-linecap="round"/>
<path d="M175.002 309.498L203.287 281.213" stroke="#05E0E9" stroke-width="12" stroke-linecap="round"/>
<path d="M295.284 309.498L267 281.213" stroke="#FF2768" stroke-width="12" stroke-linecap="round"/>
</svg>
