<svg width="49" height="49" viewBox="0 0 49 49" fill="none" xmlns="http://www.w3.org/2000/svg">
<path fill-rule="evenodd" clip-rule="evenodd" d="M12.2137 0C5.46828 0 0 5.46828 0 12.2137V36.6412C0 43.3867 5.46828 48.8549 12.2137 48.8549H24.4275C37.9184 48.8549 48.855 37.9184 48.855 24.4275C48.855 10.9366 37.9184 0 24.4275 0H12.2137ZM20.2312 14.9829C20.9083 14.0049 20.6643 12.6632 19.6863 11.9862C18.7084 11.3091 17.3667 11.5531 16.6896 12.531L14.9196 15.0878L12.7517 12.4037C12.0043 11.4783 10.6482 11.3341 9.7229 12.0815C8.79756 12.8289 8.6533 14.1849 9.40069 15.1102L13.5059 20.1929C14.3447 21.2314 15.9462 21.1723 16.7062 20.0746L20.2312 14.9829ZM25.6482 37.5364C25.6482 38.9993 26.843 40.2083 28.2858 39.9673C35.8076 38.7108 41.5405 32.1713 41.5405 24.2928C41.5405 16.4143 35.8076 9.87482 28.2858 8.61839C26.843 8.37738 25.6482 9.58639 25.6482 11.0492C25.6482 12.5121 26.8525 13.664 28.2701 14.0249C32.8533 15.1917 36.2431 19.3464 36.2431 24.2928C36.2431 29.2393 32.8533 33.394 28.2701 34.5608C26.8525 34.9217 25.6482 36.0736 25.6482 37.5364ZM14.6891 37.3171C17.068 37.3171 18.9965 35.3886 18.9965 33.0096C18.9965 30.6307 17.068 28.7021 14.6891 28.7021C12.3101 28.7021 10.3816 30.6307 10.3816 33.0096C10.3816 35.3886 12.3101 37.3171 14.6891 37.3171Z" fill="#FF8577"/>
</svg>
