<svg width="385" height="40" viewBox="0 0 385 40" fill="none" xmlns="http://www.w3.org/2000/svg">
<path fill-rule="evenodd" clip-rule="evenodd" d="M0 4C0 1.79086 1.79086 0 4 0H22C27.8384 0 32.5714 4.733 32.5714 10.5714C32.5714 13.592 31.3046 16.3167 29.2733 18.2431C32.3084 20.4207 34.2857 23.9794 34.2857 28C34.2857 34.6274 28.9131 40 22.2857 40H4C1.79086 40 0 38.2091 0 36V4ZM5.14286 16H22C24.9981 16 27.4286 13.5695 27.4286 10.5714C27.4286 7.57331 24.9981 5.14286 22 5.14286H5.14286V16ZM5.14286 21.1429V34.8571H22.2857C26.0728 34.8571 29.1429 31.7871 29.1429 28C29.1429 24.2129 26.0728 21.1429 22.2857 21.1429H5.14286Z" fill="white"/>
<path d="M76.6662 2.57143C76.6662 1.15127 75.515 0 74.0948 0H47.8091C45.5999 0 43.8091 1.79086 43.8091 4V36C43.8091 38.2091 45.5999 40 47.8091 40H75.5234C76.9435 40 78.0948 38.8487 78.0948 37.4286V37.4286C78.0948 36.0084 76.9435 34.8571 75.5234 34.8571H48.9519V21.1429H73.8091C75.2292 21.1429 76.3805 19.9916 76.3805 18.5714V18.5714C76.3805 17.1513 75.2292 16 73.8091 16H48.9519V5.14286H74.0948C75.515 5.14286 76.6662 3.99159 76.6662 2.57143V2.57143Z" fill="white"/>
<path d="M92.1567 2.58616C92.1567 1.15786 90.9988 0 89.5705 0V0C88.1422 0 86.9843 1.15786 86.9843 2.58616V37.4138C86.9843 38.8421 88.1422 40 89.5705 40V40C90.9988 40 92.1567 38.8421 92.1567 37.4138V22.6405L112.461 39.4098C112.923 39.7913 113.503 40 114.102 40V40C116.518 40 117.606 36.974 115.743 35.4353L95.0941 18.3809L113.517 4.6423C115.505 3.15985 114.457 1.06856e-05 111.977 2.73961e-06V2.73961e-06C111.422 9.60885e-07 110.881 0.179267 110.436 0.511115L92.1567 14.1429V2.58616Z" fill="white"/>
<path d="M125.079 2.53968C125.079 1.13705 126.216 0 127.619 0V0C129.021 0 130.158 1.13705 130.158 2.53968V37.4603C130.158 38.8629 129.021 40 127.619 40V40C126.216 40 125.079 38.8629 125.079 37.4603V2.53968Z" fill="white"/>
<path d="M140.952 0.804748C140.952 0.360298 141.312 0 141.757 0V0C141.973 0 142.18 0.0870334 142.332 0.241482L170.095 28.5714V2.57143C170.095 1.15127 171.246 0 172.666 0V0C174.087 0 175.238 1.15127 175.238 2.57143V39.1953C175.238 39.6397 174.878 40 174.433 40V40C174.217 40 174.01 39.913 173.858 39.7585L146.095 11.4286V37.4286C146.095 38.8487 144.944 40 143.524 40V40C142.103 40 140.952 38.8487 140.952 37.4286V0.804748Z" fill="white"/>
<path fill-rule="evenodd" clip-rule="evenodd" d="M202.54 0C212.007 0 219.682 8.9543 219.682 20C219.682 31.0457 212.007 40 202.54 40H189.397C187.188 40 185.397 38.2091 185.397 36V4C185.397 1.79086 187.188 0 189.397 0H202.54ZM214.54 20C214.54 28.9777 208.452 34.8571 202.54 34.8571H190.54V5.14286H202.54C208.452 5.14286 214.54 11.0223 214.54 20Z" fill="white"/>
<path d="M234.984 2.57143C234.984 1.15127 233.833 0 232.413 0V0C230.993 0 229.841 1.15127 229.841 2.57143V36C229.841 38.2091 231.632 40 233.841 40H261.556C262.976 40 264.127 38.8487 264.127 37.4286V37.4286C264.127 36.0084 262.976 34.8571 261.556 34.8571H234.984V2.57143Z" fill="#ACACAC"/>
<path fill-rule="evenodd" clip-rule="evenodd" d="M271.625 40C269.909 40 268.775 38.2147 269.505 36.661L286.489 0.515489C286.637 0.200866 286.954 0 287.301 0V0C287.649 0 287.965 0.200867 288.113 0.51549L305.097 36.661C305.827 38.2147 304.694 40 302.977 40V40C302.096 40 301.289 39.5051 300.889 38.7192L296.746 30.5714H277.857L273.714 38.7192C273.314 39.5051 272.507 40 271.625 40V40ZM280.472 25.4286H294.13L287.301 12L280.472 25.4286Z" fill="#ACACAC"/>
<path fill-rule="evenodd" clip-rule="evenodd" d="M310.476 4C310.476 1.79086 312.267 0 314.476 0H332.476C338.315 0 343.048 4.733 343.048 10.5714C343.048 13.592 341.781 16.3167 339.75 18.2431C342.785 20.4207 344.762 23.9794 344.762 28C344.762 34.6274 339.389 40 332.762 40H314.476C312.267 40 310.476 38.2091 310.476 36V4ZM315.619 16H332.476C335.474 16 337.905 13.5695 337.905 10.5714C337.905 7.57331 335.474 5.14286 332.476 5.14286H315.619V16ZM315.619 21.1429V34.8571H332.762C336.549 34.8571 339.619 31.7871 339.619 28C339.619 24.2129 336.549 21.1429 332.762 21.1429H315.619Z" fill="#ACACAC"/>
<path d="M381.333 2.57143C381.333 3.99159 380.182 5.14286 378.762 5.14286H362.762C359.764 5.14286 357.333 7.57331 357.333 10.5714C357.333 13.5695 359.764 16 362.762 16H372.762C379.389 16 384.762 21.3726 384.762 28C384.762 34.6274 379.389 40 372.762 40H353.047C351.627 40 350.476 38.8487 350.476 37.4286V37.4286C350.476 36.0084 351.627 34.8571 353.047 34.8571H372.762C376.549 34.8571 379.619 31.7871 379.619 28C379.619 24.2129 376.549 21.1429 372.762 21.1429H362.762C356.923 21.1429 352.19 16.4099 352.19 10.5714C352.19 4.73299 356.923 0 362.762 0H378.762C380.182 0 381.333 1.15127 381.333 2.57143V2.57143Z" fill="#ACACAC"/>
</svg>
