<svg width="240" height="92" viewBox="0 0 240 92" fill="none" xmlns="http://www.w3.org/2000/svg">
<path d="M130.076 39.084C130.076 17.4985 147.575 0 169.16 0C174.557 0 178.931 4.37462 178.931 9.77099V36.6412C178.931 43.3867 173.463 48.855 166.717 48.855H139.847C134.451 48.855 130.076 44.4803 130.076 39.084Z" fill="#10A9FF"/>
<path d="M0 12.2137C0 5.46828 5.46828 0 12.2137 0V0C18.9592 0 24.4275 5.46828 24.4275 12.2137V36.6412C24.4275 43.3867 18.9592 48.855 12.2137 48.855V48.855C5.46828 48.855 0 43.3867 0 36.6412V12.2137Z" fill="#10A9FF"/>
<path d="M93.4351 12.2137C93.4351 5.46828 98.9033 0 105.649 0V0C112.394 0 117.863 5.46828 117.863 12.2137V36.6412C117.863 43.3867 112.394 48.855 105.649 48.855V48.855C98.9033 48.855 93.4351 43.3867 93.4351 36.6412V12.2137Z" fill="#344859"/>
<path fill-rule="evenodd" clip-rule="evenodd" d="M203.359 0C196.613 0 191.145 5.46828 191.145 12.2137V36.6412C191.145 43.3867 196.613 48.8549 203.359 48.8549H215.572C229.063 48.8549 240 37.9184 240 24.4275C240 10.9366 229.063 0 215.572 0H203.359ZM211.376 14.9829C212.053 14.0049 211.809 12.6632 210.831 11.9862C209.853 11.3091 208.512 11.5531 207.835 12.531L206.065 15.0878L203.897 12.4037C203.149 11.4783 201.793 11.3341 200.868 12.0815C199.943 12.8289 199.798 14.1849 200.546 15.1102L204.651 20.1929C205.49 21.2314 207.091 21.1723 207.851 20.0746L211.376 14.9829ZM216.793 37.5364C216.793 38.9993 217.988 40.2083 219.431 39.9673C226.953 38.7108 232.686 32.1713 232.686 24.2928C232.686 16.4143 226.953 9.87482 219.431 8.61839C217.988 8.37738 216.793 9.58639 216.793 11.0492C216.793 12.5121 217.998 13.664 219.415 14.0249C223.998 15.1917 227.388 19.3464 227.388 24.2928C227.388 29.2393 223.998 33.394 219.415 34.5608C217.998 34.9217 216.793 36.0736 216.793 37.5364ZM205.834 37.3171C208.213 37.3171 210.142 35.3886 210.142 33.0096C210.142 30.6307 208.213 28.7021 205.834 28.7021C203.455 28.7021 201.527 30.6307 201.527 33.0096C201.527 35.3886 203.455 37.3171 205.834 37.3171Z" fill="#FF8577"/>
<path d="M81.4615 39.1607C81.4864 46.6159 73.4065 51.2808 66.9625 47.5317L41.4371 32.681C35.0301 28.9534 35.0456 19.6933 41.4649 15.9871L66.8919 1.30676C73.3112 -2.39943 81.3384 2.21729 81.3631 9.62963L81.4615 39.1607Z" fill="#22F5CB"/>
<path fill-rule="evenodd" clip-rule="evenodd" d="M0 68.7461C0 67.8788 0.702553 67.1758 1.5692 67.1758H13.4254C16.9882 67.1758 19.8765 70.0662 19.8765 73.6316C19.8765 75.2484 19.2826 76.7264 18.3011 77.859C18.086 78.1073 18.1122 78.4938 18.3616 78.7076C19.9293 80.0516 20.9226 82.0472 20.9226 84.275C20.9226 88.3223 17.644 91.6033 13.5997 91.6033H1.5692C0.702554 91.6033 0 90.9002 0 90.0329V68.7461ZM3.13839 76.1616C3.13839 76.5952 3.48967 76.9468 3.92299 76.9468H13.4254C15.2549 76.9468 16.7381 75.4625 16.7381 73.6316C16.7381 71.8007 15.2549 70.3165 13.4254 70.3165H3.92299C3.48967 70.3165 3.13839 70.668 3.13839 71.1016V76.1616ZM3.92299 80.0874C3.48967 80.0874 3.13839 80.439 3.13839 80.8726V87.6774C3.13839 88.1111 3.48967 88.4626 3.92299 88.4626H13.5997C15.9108 88.4626 17.7842 86.5877 17.7842 84.275C17.7842 81.9623 15.9108 80.0874 13.5997 80.0874H3.92299Z" fill="#344859"/>
<path d="M47.5118 68.7461C47.5118 67.8788 46.8092 67.1758 45.9426 67.1758H29.0301C28.1635 67.1758 27.4609 67.8788 27.4609 68.7461V90.0329C27.4609 90.9002 28.1635 91.6033 29.0301 91.6033H46.8144C47.681 91.6033 48.3836 90.9002 48.3836 90.0329V90.0329C48.3836 89.1656 47.681 88.4626 46.8144 88.4626H31.3839C30.9506 88.4626 30.5993 88.1111 30.5993 87.6774V80.8726C30.5993 80.439 30.9506 80.0874 31.3839 80.0874H45.7682C46.6349 80.0874 47.3374 79.3844 47.3374 78.5171V78.5171C47.3374 77.6498 46.6349 76.9468 45.7682 76.9468H31.3839C30.9506 76.9468 30.5993 76.5952 30.5993 76.1616V71.1016C30.5993 70.668 30.9506 70.3165 31.3839 70.3165H45.9426C46.8092 70.3165 47.5118 69.6134 47.5118 68.7461V68.7461Z" fill="#344859"/>
<path d="M57.4499 68.7461C57.4499 67.8788 56.7474 67.1758 55.8807 67.1758C55.0141 67.1758 54.3115 67.8788 54.3115 68.7461V90.0329C54.3115 90.9002 55.0141 91.6033 55.8807 91.6033C56.7474 91.6033 57.4499 90.9002 57.4499 90.0329V82.1173C57.4499 81.6739 57.9664 81.4314 58.3072 81.7147L69.7673 91.2409C70.049 91.4751 70.4037 91.6033 70.77 91.6033C72.2389 91.6033 72.9026 89.7642 71.7726 88.825L59.7419 78.8244C59.4819 78.6083 59.4919 78.2059 59.7622 78.003L70.422 70.0024C71.6284 69.0969 70.9885 67.1758 69.4804 67.1758C69.1409 67.1758 68.8105 67.286 68.5389 67.4899L58.2868 75.1845C57.942 75.4433 57.4499 75.1971 57.4499 74.7658V68.7461Z" fill="#344859"/>
<path d="M77.501 68.7461C77.501 67.8788 78.2035 67.1758 79.0702 67.1758C79.9368 67.1758 80.6394 67.8788 80.6394 68.7461V90.0329C80.6394 90.9002 79.9368 91.6033 79.0702 91.6033C78.2035 91.6033 77.501 90.9002 77.501 90.0329V68.7461Z" fill="#344859"/>
<path d="M87.875 67.6672C87.875 67.3958 88.0949 67.1758 88.3661 67.1758V67.1758C88.4981 67.1758 88.6245 67.2289 88.7168 67.3233L105.211 84.1662C105.375 84.3336 105.659 84.2174 105.659 83.983V68.7461C105.659 67.8788 106.362 67.1758 107.228 67.1758V67.1758C108.095 67.1758 108.798 67.8788 108.798 68.7461V91.1118C108.798 91.3832 108.578 91.6033 108.307 91.6033V91.6033C108.175 91.6033 108.048 91.5501 107.956 91.4558L91.4617 74.6129C91.2977 74.4454 91.0134 74.5616 91.0134 74.7961V90.0329C91.0134 90.9002 90.3108 91.6033 89.4442 91.6033V91.6033C88.5776 91.6033 87.875 90.9002 87.875 90.0329V67.6672Z" fill="#344859"/>
<path fill-rule="evenodd" clip-rule="evenodd" d="M125.797 67.1758C131.575 67.1758 136.259 72.6441 136.259 79.3895C136.259 86.135 131.575 91.6033 125.797 91.6033H116.905C116.038 91.6033 115.336 90.9002 115.336 90.0329V68.7461C115.336 67.8788 116.038 67.1758 116.905 67.1758H125.797ZM133.12 79.3895C133.12 84.8721 129.405 88.4626 125.797 88.4626H119.259C118.826 88.4626 118.474 88.1111 118.474 87.6774V71.1016C118.474 70.668 118.826 70.3165 119.259 70.3165H125.797C129.405 70.3165 133.12 73.907 133.12 79.3895Z" fill="#344859"/>
<path d="M146.546 68.7461C146.546 67.8788 145.843 67.1758 144.976 67.1758V67.1758C144.11 67.1758 143.407 67.8788 143.407 68.7461V90.0329C143.407 90.9002 144.11 91.6033 144.976 91.6033H162.761C163.627 91.6033 164.33 90.9002 164.33 90.0329V90.0329C164.33 89.1656 163.627 88.4626 162.761 88.4626H147.33C146.897 88.4626 146.546 88.1111 146.546 87.6774V68.7461Z" fill="#344859"/>
<path fill-rule="evenodd" clip-rule="evenodd" d="M168.642 91.6033C167.591 91.6033 166.897 90.5086 167.345 89.5571L177.74 67.4914C177.831 67.2987 178.024 67.1758 178.237 67.1758V67.1758C178.45 67.1758 178.644 67.2987 178.735 67.4914L189.13 89.5571C189.578 90.5086 188.884 91.6033 187.833 91.6033V91.6033C187.294 91.6033 186.801 91.301 186.556 90.8207L184.456 86.702C184.188 86.1763 183.648 85.8454 183.059 85.8454H173.416C172.826 85.8454 172.286 86.1763 172.018 86.702L169.919 90.8207C169.674 91.301 169.18 91.6033 168.642 91.6033V91.6033ZM174.445 81.9433C174.267 82.2916 174.52 82.7047 174.91 82.7047H181.564C181.955 82.7047 182.208 82.2916 182.03 81.9433L178.703 75.4179C178.509 75.0372 177.966 75.0372 177.771 75.4179L174.445 81.9433Z" fill="#344859"/>
<path fill-rule="evenodd" clip-rule="evenodd" d="M193.447 68.7461C193.447 67.8788 194.15 67.1758 195.016 67.1758H206.873C210.435 67.1758 213.324 70.0662 213.324 73.6316C213.324 75.2484 212.73 76.7264 211.748 77.859C211.533 78.1073 211.559 78.4938 211.809 78.7076C213.377 80.0516 214.37 82.0472 214.37 84.275C214.37 88.3223 211.091 91.6033 207.047 91.6033H195.016C194.15 91.6033 193.447 90.9002 193.447 90.0329V68.7461ZM196.586 76.1616C196.586 76.5952 196.937 76.9468 197.37 76.9468H206.873C208.702 76.9468 210.185 75.4625 210.185 73.6316C210.185 71.8007 208.702 70.3165 206.873 70.3165H197.37C196.937 70.3165 196.586 70.668 196.586 71.1016V76.1616ZM197.37 80.0874C196.937 80.0874 196.586 80.439 196.586 80.8726V87.6774C196.586 88.1111 196.937 88.4626 197.37 88.4626H207.047C209.358 88.4626 211.231 86.5877 211.231 84.275C211.231 81.9623 209.358 80.0874 207.047 80.0874H197.37Z" fill="#344859"/>
<path d="M237.908 68.7461C237.908 69.6134 237.205 70.3165 236.339 70.3165H226.575C224.745 70.3165 223.262 71.8007 223.262 73.6316C223.262 75.4625 224.745 76.9468 226.575 76.9468H232.677C236.722 76.9468 240 80.2277 240 84.275C240 88.3223 236.722 91.6033 232.677 91.6033H220.647C219.78 91.6033 219.078 90.9002 219.078 90.0329V90.0329C219.078 89.1656 219.78 88.4626 220.647 88.4626H232.677C234.988 88.4626 236.862 86.5877 236.862 84.275C236.862 81.9623 234.988 80.0874 232.677 80.0874H226.575C223.012 80.0874 220.124 77.1971 220.124 73.6316C220.124 70.0662 223.012 67.1758 226.575 67.1758H236.339C237.205 67.1758 237.908 67.8788 237.908 68.7461V68.7461Z" fill="#344859"/>
</svg>
