<svg width="197" height="41" viewBox="0 0 197 41" fill="none" xmlns="http://www.w3.org/2000/svg">
<path d="M35.1174 29.1692C28.2942 25.2299 28.2942 15.3815 35.1174 11.4421L52.0048 1.69214C58.828 -2.24723 67.357 2.67698 67.357 10.5557L67.357 30.0556C67.357 37.9344 58.828 42.8586 52.0048 38.9192L35.1174 29.1692Z" fill="#D9D9D9"/>
<path d="M107 32C107 14.3269 121.327 0 139 0V0C143.418 0 147 3.58172 147 8V30C147 35.5228 142.523 40 137 40H115C110.582 40 107 36.4183 107 32V32Z" fill="#D9D9D9"/>
<path d="M157 10C157 4.47715 161.477 0 167 0H177C188.046 0 197 8.95431 197 20V20C197 31.0457 188.046 40 177 40H167C161.477 40 157 35.5228 157 30V10Z" fill="#D9D9D9"/>
<rect width="20" height="40" rx="10" fill="#D9D9D9"/>
<rect x="77" width="20" height="40" rx="10" fill="#D9D9D9"/>
</svg>
