<svg width="160" height="33" viewBox="0 0 160 33" fill="none" xmlns="http://www.w3.org/2000/svg">
<path d="M86.7173 26.056C86.7173 11.6657 98.3829 0 112.773 0C116.371 0 119.287 2.91642 119.287 6.514V24.4275C119.287 28.9245 115.642 32.57 111.145 32.57H93.2313C89.6337 32.57 86.7173 29.6536 86.7173 26.056Z" fill="#10A9FF"/>
<path d="M0 8.14249C0 3.64552 3.64552 0 8.14249 0V0C12.6395 0 16.285 3.64552 16.285 8.14249V24.4275C16.285 28.9245 12.6395 32.57 8.14249 32.57V32.57C3.64552 32.57 0 28.9245 0 24.4275V8.14249Z" fill="#10A9FF"/>
<path d="M62.29 8.14249C62.29 3.64552 65.9356 0 70.4325 0V0C74.9295 0 78.575 3.64552 78.575 8.14249V24.4275C78.575 28.9245 74.9295 32.57 70.4325 32.57V32.57C65.9356 32.57 62.29 28.9245 62.29 24.4275V8.14249Z" fill="#344859"/>
<path fill-rule="evenodd" clip-rule="evenodd" d="M135.573 0C131.076 0 127.43 3.64552 127.43 8.14249V24.4275C127.43 28.9245 131.076 32.57 135.573 32.57H143.715C152.709 32.57 160 25.2789 160 16.285C160 7.29104 152.709 0 143.715 0H135.573ZM140.918 9.98859C141.369 9.33661 141.206 8.44216 140.554 7.99078C139.902 7.53941 139.008 7.70204 138.557 8.35402L137.377 10.0585L135.931 8.26913C135.433 7.65223 134.529 7.55606 133.912 8.05432C133.295 8.55258 133.199 9.4566 133.697 10.0735L136.434 13.4619C136.993 14.1543 138.061 14.1148 138.568 13.3831L140.918 9.98859ZM144.529 25.0243C144.529 25.9995 145.325 26.8055 146.287 26.6449C151.302 25.8072 155.124 21.4476 155.124 16.1952C155.124 10.9429 151.302 6.58321 146.287 5.7456C145.325 5.58492 144.529 6.39093 144.529 7.36616C144.529 8.34139 145.332 9.10932 146.277 9.34992C149.332 10.1278 151.592 12.8976 151.592 16.1952C151.592 19.4929 149.332 22.2627 146.277 23.0405C145.332 23.2811 144.529 24.0491 144.529 25.0243ZM137.223 24.8781C138.809 24.8781 140.095 23.5924 140.095 22.0064C140.095 20.4205 138.809 19.1348 137.223 19.1348C135.637 19.1348 134.351 20.4205 134.351 22.0064C134.351 23.5924 135.637 24.8781 137.223 24.8781Z" fill="#FF8577"/>
<path d="M54.3075 26.1071C54.3241 31.0773 48.9375 34.1872 44.6415 31.6878L27.6245 21.7873C23.3533 19.3023 23.3635 13.1289 27.6431 10.6581L44.5945 0.871175C48.874 -1.59962 54.2255 1.47819 54.2419 6.41975L54.3075 26.1071Z" fill="#22F5CB"/>
</svg>
