<svg width="240" height="25" viewBox="0 0 240 25" fill="none" xmlns="http://www.w3.org/2000/svg">
<path fill-rule="evenodd" clip-rule="evenodd" d="M0 1.74612C0 0.878845 0.702553 0.175781 1.5692 0.175781H13.4254C16.9882 0.175781 19.8765 3.06616 19.8765 6.63162C19.8765 8.24843 19.2826 9.72643 18.3011 10.859C18.086 11.1073 18.1122 11.4938 18.3616 11.7076C19.9293 13.0516 20.9226 15.0472 20.9226 17.275C20.9226 21.3223 17.644 24.6033 13.5997 24.6033H1.5692C0.702554 24.6033 0 23.9002 0 23.0329V1.74612ZM3.13839 9.1616C3.13839 9.59524 3.48967 9.94677 3.92299 9.94677H13.4254C15.2549 9.94677 16.7381 8.46253 16.7381 6.63162C16.7381 4.8007 15.2549 3.31646 13.4254 3.31646H3.92299C3.48967 3.31646 3.13839 3.66799 3.13839 4.10163V9.1616ZM3.92299 13.0874C3.48967 13.0874 3.13839 13.439 3.13839 13.8726V20.6774C3.13839 21.1111 3.48967 21.4626 3.92299 21.4626H13.5997C15.9108 21.4626 17.7842 19.5877 17.7842 17.275C17.7842 14.9623 15.9108 13.0874 13.5997 13.0874H3.92299Z" fill="#344859"/>
<path d="M47.5118 1.74612C47.5118 0.878846 46.8092 0.175781 45.9426 0.175781H29.0301C28.1635 0.175781 27.4609 0.878845 27.4609 1.74612V23.0329C27.4609 23.9002 28.1635 24.6033 29.0301 24.6033H46.8144C47.681 24.6033 48.3836 23.9002 48.3836 23.0329V23.0329C48.3836 22.1656 47.681 21.4626 46.8144 21.4626H31.3839C30.9506 21.4626 30.5993 21.1111 30.5993 20.6774V13.8726C30.5993 13.439 30.9506 13.0874 31.3839 13.0874H45.7682C46.6349 13.0874 47.3374 12.3844 47.3374 11.5171V11.5171C47.3374 10.6498 46.6349 9.94677 45.7682 9.94677H31.3839C30.9506 9.94677 30.5993 9.59524 30.5993 9.1616V4.10163C30.5993 3.66799 30.9506 3.31646 31.3839 3.31646H45.9426C46.8092 3.31646 47.5118 2.61339 47.5118 1.74612V1.74612Z" fill="#344859"/>
<path d="M57.4499 1.74612C57.4499 0.878846 56.7474 0.175781 55.8807 0.175781C55.0141 0.175781 54.3115 0.878845 54.3115 1.74612V23.0329C54.3115 23.9002 55.0141 24.6033 55.8807 24.6033C56.7474 24.6033 57.4499 23.9002 57.4499 23.0329V15.1173C57.4499 14.6739 57.9664 14.4314 58.3072 14.7147L69.7673 24.2409C70.049 24.4751 70.4037 24.6033 70.77 24.6033C72.2389 24.6033 72.9026 22.7642 71.7726 21.825L59.7419 11.8244C59.4819 11.6083 59.4919 11.2059 59.7622 11.003L70.422 3.00239C71.6284 2.09692 70.9885 0.175788 69.4804 0.175783C69.1409 0.175782 68.8105 0.285985 68.5389 0.489851L58.2868 8.18452C57.942 8.44332 57.4499 8.1971 57.4499 7.76576V1.74612Z" fill="#344859"/>
<path d="M77.501 1.74612C77.501 0.878845 78.2035 0.175781 79.0702 0.175781C79.9368 0.175781 80.6394 0.878846 80.6394 1.74612V23.0329C80.6394 23.9002 79.9368 24.6033 79.0702 24.6033C78.2035 24.6033 77.501 23.9002 77.501 23.0329V1.74612Z" fill="#344859"/>
<path d="M87.875 0.66723C87.875 0.395811 88.0949 0.175781 88.3661 0.175781V0.175781C88.4981 0.175781 88.6245 0.228931 88.7168 0.323251L105.211 17.1662C105.375 17.3336 105.659 17.2174 105.659 16.983V1.74612C105.659 0.878846 106.362 0.175781 107.228 0.175781V0.175781C108.095 0.175781 108.798 0.878845 108.798 1.74612V24.1118C108.798 24.3832 108.578 24.6033 108.307 24.6033V24.6033C108.175 24.6033 108.048 24.5501 107.956 24.4558L91.4617 7.61287C91.2977 7.44542 91.0134 7.56161 91.0134 7.79605V23.0329C91.0134 23.9002 90.3108 24.6033 89.4442 24.6033V24.6033C88.5776 24.6033 87.875 23.9002 87.875 23.0329V0.66723Z" fill="#344859"/>
<path fill-rule="evenodd" clip-rule="evenodd" d="M125.797 0.175781C131.575 0.175781 136.259 5.64406 136.259 12.3895C136.259 19.135 131.575 24.6033 125.797 24.6033H116.905C116.038 24.6033 115.336 23.9002 115.336 23.0329V1.74612C115.336 0.878845 116.038 0.175781 116.905 0.175781H125.797ZM133.12 12.3895C133.12 17.8721 129.405 21.4626 125.797 21.4626H119.259C118.826 21.4626 118.474 21.1111 118.474 20.6774V4.10163C118.474 3.66799 118.826 3.31646 119.259 3.31646H125.797C129.405 3.31646 133.12 6.90696 133.12 12.3895Z" fill="#344859"/>
<path d="M146.546 1.74612C146.546 0.878846 145.843 0.175781 144.976 0.175781V0.175781C144.11 0.175781 143.407 0.878845 143.407 1.74612V23.0329C143.407 23.9002 144.11 24.6033 144.976 24.6033H162.761C163.627 24.6033 164.33 23.9002 164.33 23.0329V23.0329C164.33 22.1656 163.627 21.4626 162.761 21.4626H147.33C146.897 21.4626 146.546 21.1111 146.546 20.6774V1.74612Z" fill="#344859"/>
<path fill-rule="evenodd" clip-rule="evenodd" d="M168.642 24.6033C167.591 24.6033 166.897 23.5086 167.345 22.5571L177.74 0.491428C177.831 0.298735 178.024 0.175781 178.237 0.175781V0.175781C178.45 0.175781 178.644 0.298735 178.735 0.491429L189.13 22.5571C189.578 23.5086 188.884 24.6033 187.833 24.6033V24.6033C187.294 24.6033 186.801 24.301 186.556 23.8207L184.456 19.702C184.188 19.1763 183.648 18.8454 183.059 18.8454H173.416C172.826 18.8454 172.286 19.1763 172.018 19.702L169.919 23.8207C169.674 24.301 169.18 24.6033 168.642 24.6033V24.6033ZM174.445 14.9433C174.267 15.2916 174.52 15.7047 174.91 15.7047H181.564C181.955 15.7047 182.208 15.2916 182.03 14.9433L178.703 8.41791C178.509 8.03717 177.966 8.03717 177.771 8.41791L174.445 14.9433Z" fill="#344859"/>
<path fill-rule="evenodd" clip-rule="evenodd" d="M193.447 1.74612C193.447 0.878845 194.15 0.175781 195.016 0.175781H206.872C210.435 0.175781 213.324 3.06616 213.324 6.63162C213.324 8.24844 212.73 9.72644 211.748 10.859C211.533 11.1073 211.559 11.4938 211.809 11.7076C213.376 13.0516 214.37 15.0472 214.37 17.275C214.37 21.3223 211.091 24.6033 207.047 24.6033H195.016C194.15 24.6033 193.447 23.9002 193.447 23.0329V1.74612ZM196.585 9.1616C196.585 9.59524 196.937 9.94677 197.37 9.94677H206.872C208.702 9.94677 210.185 8.46253 210.185 6.63162C210.185 4.8007 208.702 3.31646 206.872 3.31646H197.37C196.937 3.31646 196.585 3.66799 196.585 4.10163V9.1616ZM197.37 13.0874C196.937 13.0874 196.585 13.439 196.585 13.8726V20.6774C196.585 21.1111 196.937 21.4626 197.37 21.4626H207.047C209.358 21.4626 211.231 19.5877 211.231 17.275C211.231 14.9623 209.358 13.0874 207.047 13.0874H197.37Z" fill="#344859"/>
<path d="M237.908 1.74612C237.908 2.61339 237.205 3.31646 236.339 3.31646H226.575C224.745 3.31646 223.262 4.8007 223.262 6.63162C223.262 8.46253 224.745 9.94677 226.575 9.94677H232.677C236.721 9.94677 240 13.2277 240 17.275C240 21.3223 236.721 24.6033 232.677 24.6033H220.647C219.78 24.6033 219.077 23.9002 219.077 23.0329V23.0329C219.077 22.1656 219.78 21.4626 220.647 21.4626H232.677C234.988 21.4626 236.862 19.5877 236.862 17.275C236.862 14.9623 234.988 13.0874 232.677 13.0874H226.575C223.012 13.0874 220.124 10.1971 220.124 6.63162C220.124 3.06616 223.012 0.175781 226.575 0.175781H236.339C237.205 0.175781 237.908 0.878846 237.908 1.74612V1.74612Z" fill="#344859"/>
</svg>
