<svg width="197" height="41" viewBox="0 0 197 41" fill="none" xmlns="http://www.w3.org/2000/svg">
<path d="M35.1174 29.1692C28.2942 25.2299 28.2942 15.3815 35.1174 11.4421L52.0048 1.69214C58.828 -2.24723 67.357 2.67698 67.357 10.5557L67.357 30.0556C67.357 37.9344 58.828 42.8586 52.0048 38.9192L35.1174 29.1692Z" fill="#D9D9D9"/>
<path d="M107 32C107 14.3269 121.327 0 139 0V0C143.418 0 147 3.58172 147 8V30C147 35.5228 142.523 40 137 40H115C110.582 40 107 36.4183 107 32V32Z" fill="#D9D9D9"/>
<path d="M157 10C157 4.47715 161.477 0 167 0H177C188.046 0 197 8.95431 197 20V20C197 31.0457 188.046 40 177 40H167C161.477 40 157 35.5228 157 30V10Z" fill="#D9D9D9"/>
<rect width="20" height="40" rx="10" fill="#D9D9D9"/>
<rect x="77" width="20" height="40" rx="10" fill="#D9D9D9"/>
<path fill-rule="evenodd" clip-rule="evenodd" d="M178 30.7018C178 31.8995 178.978 32.8894 180.16 32.6921C186.318 31.6634 191.012 26.3092 191.012 19.8586C191.012 13.4081 186.318 8.05389 180.16 7.02519C178.978 6.82787 178 7.81774 178 9.01545V9.01545C178 10.2132 178.986 11.1563 180.147 11.4518C183.899 12.4071 186.675 15.8088 186.675 19.8586C186.675 23.9085 183.899 27.3102 180.147 28.2655C178.986 28.561 178 29.5041 178 30.7018V30.7018Z" fill="white"/>
<circle cx="169" cy="27" r="4" fill="white"/>
<path d="M166 10L169.231 15L172 10" stroke="white" stroke-width="4" stroke-linecap="round"/>
</svg>
