<svg width="68" height="68" viewBox="0 0 68 68" fill="none" xmlns="http://www.w3.org/2000/svg">
<path fill-rule="evenodd" clip-rule="evenodd" d="M34 0C52.7777 0 68 15.2223 68 34C68 52.7777 52.7777 68 34 68H0V0H34ZM27.4009 16.6833C28.7622 17.6256 29.1017 19.4931 28.1593 20.8543L23.2529 27.9414C22.1952 29.4692 19.9661 29.5515 18.7985 28.1059L13.0846 21.0316C12.0443 19.7436 12.2451 17.8562 13.5331 16.8159C14.821 15.7756 16.7084 15.9764 17.7487 17.2644L20.7662 21.0003L23.2299 17.4416C24.1723 16.0804 26.0397 15.7409 27.4009 16.6833ZM39.3703 55.6295C37.3621 55.9649 35.6991 54.2821 35.6991 52.246C35.6991 50.2099 37.3753 48.6066 39.3485 48.1043C45.7278 46.4803 50.4458 40.6974 50.4458 33.8126C50.4458 26.9278 45.7278 21.1449 39.3485 19.5209C37.3753 19.0186 35.6991 17.4153 35.6991 15.3792C35.6991 13.3431 37.3621 11.6603 39.3703 11.9957C49.8397 13.7445 57.8192 22.8467 57.8192 33.8126C57.8192 44.7785 49.8397 53.8807 39.3703 55.6295ZM26.4408 45.9453C26.4408 49.2565 23.7566 51.9408 20.4453 51.9408C17.1341 51.9408 14.4499 49.2565 14.4499 45.9453C14.4499 42.6341 17.1341 39.9498 20.4453 39.9498C23.7566 39.9498 26.4408 42.6341 26.4408 45.9453Z" fill="#10A9FF"/>
</svg>
