<svg width="393" height="80" viewBox="0 0 393 80" fill="none" xmlns="http://www.w3.org/2000/svg">
<path d="M213 64C213 28.6538 241.654 0 277 0C285.837 0 293 7.16344 293 16V60C293 71.0457 284.046 80 273 80H229C220.163 80 213 72.8365 213 64Z" fill="#10A9FF"/>
<path d="M0 20C0 8.9543 8.9543 0 20 0C31.0457 0 40 8.9543 40 20V60C40 71.0457 31.0457 80 20 80C8.9543 80 0 71.0457 0 60V20Z" fill="#10A9FF"/>
<path d="M153 20C153 8.9543 161.954 0 173 0C184.046 0 193 8.9543 193 20V60C193 71.0457 184.046 80 173 80C161.954 80 153 71.0457 153 60V20Z" fill="#344859"/>
<path d="M313 20C313 8.9543 321.954 0 333 0H353C375.091 0 393 17.9086 393 40C393 62.0914 375.091 80 353 80H333C321.954 80 313 71.0457 313 60V20Z" fill="#FF8577"/>
<path fill-rule="evenodd" clip-rule="evenodd" d="M345.236 19.6274C346.838 20.7361 347.237 22.9331 346.129 24.5345L339.387 34.2729C338.627 35.3706 337.025 35.4298 336.186 34.3912L328.394 24.743C327.17 23.2278 327.406 21.0073 328.921 19.7835C330.436 18.5596 332.657 18.7958 333.881 20.3111L337.431 24.7063L340.329 20.5196C341.438 18.9182 343.635 18.5187 345.236 19.6274Z" fill="#131E28"/>
<path fill-rule="evenodd" clip-rule="evenodd" d="M354.999 61.4657C354.999 63.8611 356.955 65.8409 359.318 65.4462C371.635 63.3888 381.023 52.6803 381.023 39.7793C381.023 26.8782 371.635 16.1698 359.318 14.1124C356.955 13.7177 354.999 15.6975 354.999 18.0929V18.0929C354.999 20.4883 356.971 22.3745 359.292 22.9655C366.797 24.8762 372.348 31.6795 372.348 39.7793C372.348 47.8791 366.797 54.6824 359.292 56.5931C356.971 57.184 354.999 59.0703 354.999 61.4657V61.4657Z" fill="#131E28"/>
<path d="M344.107 54.0535C344.107 57.949 340.949 61.107 337.053 61.107C333.158 61.107 330 57.949 330 54.0535C330 50.158 333.158 47 337.053 47C340.949 47 344.107 50.158 344.107 54.0535Z" fill="#131E28"/>
<path d="M133.393 64.1256C133.434 76.3335 120.203 83.9723 109.651 77.8331L67.8534 53.5151C57.362 47.4112 57.3873 32.2477 67.8989 26.1788L109.536 2.13982C120.047 -3.92906 133.192 3.63081 133.232 15.7685L133.393 64.1256Z" fill="#22F5CB"/>
</svg>
